<?xml version="1.0" encoding="UTF-8"?>
<svg width="30px" height="30px" viewBox="0 0 30 30" version="1.1" xmlns="http://www.w3.org/2000/svg" xmlns:xlink="http://www.w3.org/1999/xlink">
    <!-- Generator: Sketch 48.2 (47327) - http://www.bohemiancoding.com/sketch -->
    <title>icon / Female</title>
    <desc>Created with Sketch.</desc>
    <defs></defs>
    <g id="Symbols" stroke="none" stroke-width="1" fill="none" fill-rule="evenodd">
        <g id="icon-/-Female">
            <g id="Female">
                <polygon id="Fill-1" fill="#FFFFFF" points="0 30 30 30 30 0 0 0"></polygon>
                <g id="Group-8" transform="translate(9.000000, 0.600000)" fill="#EB5F55">
                    <path d="M6,0.46638 C8.142,0.46638 9.885,2.20878 9.885,4.35138 C9.885,6.49338 8.142,8.23578 6,8.23578 C3.858,8.23578 2.115,6.49338 2.115,4.35138 C2.115,2.20878 3.858,0.46638 6,0.46638 M6,8.70258 C8.3994,8.70258 10.3512,6.75018 10.3512,4.35138 C10.3512,1.95198 8.3994,0.00018 6,0.00018 C3.6006,0.00018 1.6488,1.95198 1.6488,4.35138 C1.6488,6.75018 3.6006,8.70258 6,8.70258" id="Fill-2"></path>
                    <path d="M2.42136,24.24138 L2.93976,24.24138 L2.93976,23.77578 L2.42136,23.77578 C2.14356,23.77578 1.88556,23.64978 1.71456,23.43078 C1.54356,23.21178 1.48356,22.93158 1.55076,22.66158 L4.29216,11.63478 C4.54596,10.60638 5.37096,10.24158 5.99976,10.24158 C6.62916,10.24158 7.45416,10.60638 7.70796,11.63538 L10.44936,22.66158 C10.51656,22.93158 10.45656,23.21178 10.28556,23.43078 C10.11456,23.65038 9.85656,23.77578 9.57876,23.77578 L8.97156,23.77578 L8.97156,24.24138 L9.57876,24.24138 C10.00116,24.24138 10.39236,24.05118 10.65276,23.71818 C10.91316,23.38518 11.00376,22.95918 10.90176,22.54938 L8.16036,11.52318 C7.89816,10.46118 7.05036,9.77538 5.99976,9.77538 C4.94916,9.77538 4.10136,10.46118 3.83976,11.52318 L1.09776,22.54938 C0.99636,22.95918 1.08696,23.38518 1.34676,23.71818 C1.60776,24.05118 1.99896,24.24138 2.42136,24.24138" id="Fill-4"></path>
                    <polygon id="Fill-6" points="7.68342 28.33362 7.68342 24.00882 7.21722 24.00882 7.21722 28.33362 4.78302 28.33362 4.78302 24.00882 4.31682 24.00882 4.31682 28.33362 0.30222 28.33362 0.30222 28.79982 11.69802 28.79982 11.69802 28.33362"></polygon>
                </g>
            </g>
        </g>
    </g>
</svg>