<svg width="25px" height="25px" viewBox="0 0 25 25" version="1.1" xmlns="http://www.w3.org/2000/svg" xmlns:xlink="http://www.w3.org/1999/xlink">
    <!-- Generator: Sketch 48.2 (47327) - http://www.bohemiancoding.com/sketch -->
    <desc>Created with Sketch.</desc>
    <defs></defs>
    <g id="Symbols" stroke="none" stroke-width="1" fill="none" fill-rule="evenodd" fill-opacity="0.54">
        <g id="Dietary/-HighProtein" fill="#000000" fill-rule="nonzero">
            <g id="Dietary_High-Protein">
                <path d="M12.94,0.06 C6.312583,0.06 0.94,5.432583 0.94,12.06 C0.94,18.687417 6.312583,24.06 12.94,24.06 C19.567417,24.06 24.94,18.687417 24.94,12.06 C24.94,5.432583 19.567417,0.06 12.94,0.06 Z M2.16,12.45 C2.89556505,12.900049 3.42925435,13.6164105 3.65,14.45 C3.68096221,14.5989816 3.77121743,14.7289492 3.9,14.81 C4.16,14.93 4.46,14.95 4.73,15.05 C4.88910967,15.1102176 5.03022618,15.2100317 5.14,15.34 C5.39,15.66 5.57,15.71 5.88,15.43 C7.44605979,14.2596218 9.5692733,14.1683434 11.23,15.2 C11.3522478,15.3040538 11.4659462,15.4177522 11.57,15.54 C11.7,15.66 11.85,15.85 11.97,15.84 C12.09,15.83 12.27,15.65 12.37,15.51 C12.62,15.17 12.82,14.79 13.08,14.45 C13.3382409,14.1178655 13.7526649,13.9467731 14.17,14 C14.934136,13.9600161 15.6733664,14.2778852 16.17,14.86 C16.2237627,14.9557147 16.3204322,15.0195812 16.4295651,15.0314866 C16.538698,15.043392 16.6468643,15.0018712 16.72,14.92 C16.8058157,14.7568125 16.8237832,14.5663572 16.77,14.39 C16.77,14.24 16.59,14.12 16.5,13.98 C15.67,12.65 14.82,11.33 14.02,9.98 C13.795369,9.55919337 13.6336491,9.10772552 13.54,8.64 C13.41,8.12 13.22,8.03 12.75,8.3 C12.3139587,8.57167057 11.8556474,8.80584425 11.38,9 C10.8000918,9.20434009 10.1584226,9.13058502 9.64,8.8 C9.30479947,8.64934266 9.14650353,8.26239702 9.28,7.92 C9.29537275,7.73614152 9.22530228,7.55543347 9.09,7.43 C8.94920776,7.36409383 8.84905088,7.23408468 8.82124235,7.08113775 C8.79343382,6.92819082 8.84141744,6.77124704 8.95,6.66 C9.27321233,6.19616015 9.62383645,5.75203626 10,5.33 C10.51,4.78 10.76,4.73 11.43,5.08 C12.43,5.6 13.43,6.08 14.43,6.72 C15.1658495,7.1285322 15.8393612,7.64040105 16.43,8.24 C17.3515339,9.34022557 18.2095928,10.4920945 19,11.69 C19.9188898,12.9413097 20.5536556,14.3780645 20.86,15.9 C20.998181,16.4686626 20.835962,17.0684955 20.43,17.49 C19.6569622,18.3414846 18.6794715,18.9816722 17.59,19.35 C15.8477678,19.9079753 14.0033344,20.0719249 12.19,19.83 C11.57,19.76 10.95,19.66 10.32,19.57 C10.06,19.57 9.82,19.57 9.76,19.87 C9.60770431,20.6556527 9.29446947,21.4012878 8.84,22.06 C4.91855876,20.4474064 2.30507107,16.6875835 2.16,12.45 Z M12.94,22.86 C11.8057166,22.8601528 10.6785162,22.6812857 9.6,22.33 C9.75329089,22.1512188 9.8873611,21.956817 10,21.75 C10.21,21.32 10.36,20.87 10.54,20.41 C11.33,20.5 12.12,20.61 12.92,20.66 C14.6412654,20.8162946 16.3758162,20.5909396 18,20 C19.6293618,19.4933005 20.9851513,18.3502545 21.76,16.83 L21.76,16.15 C21.76,16.05 21.7,15.96 21.69,15.86 C21.5130777,14.8144871 21.1757699,13.8025637 20.69,12.86 C19.8860826,11.4549252 18.9697576,10.1172243 17.95,8.86 C17.0760551,7.62922787 15.9427521,6.6051589 14.63,5.86 C13.57,5.26 12.49,4.7 11.4,4.15 C10.9486487,3.91285932 10.3999704,3.96380803 10,4.28 C9.15432709,4.85017922 8.49113528,5.65225937 8.09,6.59 C7.9276797,6.98777646 8.0094768,7.44350314 8.3,7.76 C8.37564608,7.85355998 8.41788,7.96970326 8.42,8.09 C8.39021796,8.56114031 8.61054622,9.01319311 9,9.28 C9.59776392,9.76047053 10.3794503,9.94763487 11.13,9.79 C11.71,9.66 12.28,9.44 12.78,9.28 L15,13.32 C13.7659249,12.8465619 12.3797565,13.4463463 11.88,14.67 L11.8,14.67 C9.98727504,13.4264049 7.61203148,13.3676118 5.74,14.52 C5.62367553,14.562003 5.49632447,14.562003 5.38,14.52 L4.66,14.3 C4.32145619,12.9648757 3.38884061,11.8590074 2.13,11.3 C2.5424837,5.45340506 7.54294105,1.00292886 13.3979167,1.27139835 C19.2528923,1.53986783 23.8250856,6.4292809 23.700793,12.2890903 C23.5765003,18.1488997 18.8010935,22.8400405 12.94,22.86 Z" id="Shape"></path>
            </g>
        </g>
    </g>
</svg>