<?xml version="1.0" encoding="UTF-8"?>
<svg width="30px" height="30px" viewBox="0 0 30 30" version="1.1" xmlns="http://www.w3.org/2000/svg" xmlns:xlink="http://www.w3.org/1999/xlink">
    <!-- Generator: Sketch 48.2 (47327) - http://www.bohemiancoding.com/sketch -->
    <title>icon / male</title>
    <desc>Created with Sketch.</desc>
    <defs></defs>
    <g id="Symbols" stroke="none" stroke-width="1" fill="none" fill-rule="evenodd">
        <g id="icon-/-male">
            <g id="male">
                <polygon id="Fill-1" fill="#FFFFFF" points="0 30 30 30 30 0 0 0"></polygon>
                <g id="Group-8" transform="translate(7.200000, 0.600000)" fill="#56AACD">
                    <path d="M6.85374,0.46638 C8.99574,0.46638 10.73874,2.20878 10.73874,4.35138 C10.73874,6.49338 8.99574,8.23578 6.85374,8.23578 C4.71174,8.23578 2.96874,6.49338 2.96874,4.35138 C2.96874,2.20878 4.71174,0.46638 6.85374,0.46638 M6.85374,8.70258 C9.25314,8.70258 11.20494,6.75018 11.20494,4.35138 C11.20494,1.95198 9.25314,0.00018 6.85374,0.00018 C4.45434,0.00018 2.50314,1.95198 2.50314,4.35138 C2.50314,6.75018 4.45434,8.70258 6.85374,8.70258" id="Fill-2"></path>
                    <path d="M12.84816,22.13616 C12.45816,21.96876 12.20556,21.58656 12.20556,21.16176 L12.20556,13.59756 C12.20556,11.18376 10.24236,9.22056 7.82856,9.22056 L6.22296,9.22056 C3.80976,9.22056 1.84596,11.18376 1.84596,13.59756 L1.84596,21.29616 C1.84596,21.66456 1.65936,22.00116 1.34616,22.19616 L0.58296,22.67136 L0.82956,23.06736 L1.59216,22.59216 C2.04336,22.31136 2.31216,21.82656 2.31216,21.29616 L2.31216,13.59756 C2.31216,11.44056 4.06656,9.68616 6.22296,9.68616 L7.82856,9.68616 C9.98496,9.68616 11.73936,11.44056 11.73936,13.59756 L11.73936,21.16176 C11.73936,21.77316 12.10236,22.32336 12.66456,22.56456 L12.96876,22.69476 L13.15176,22.26636 L12.84816,22.13616 Z" id="Fill-4"></path>
                    <polygon id="Fill-6" points="10.15956 19.13964 9.69336 19.13964 9.69336 28.33344 7.25916 28.33344 7.25916 22.30764 6.79236 22.30764 6.79236 28.33344 4.35816 28.33344 4.35816 19.13964 3.89196 19.13964 3.89196 28.33344 1.50936 28.33344 1.50936 28.80024 12.90456 28.80024 12.90456 28.33344 10.15956 28.33344"></polygon>
                </g>
            </g>
        </g>
    </g>
</svg>