<?xml version="1.0" encoding="UTF-8"?>
<svg width="24px" height="24px" viewBox="0 0 24 24" version="1.1" xmlns="http://www.w3.org/2000/svg" xmlns:xlink="http://www.w3.org/1999/xlink">
    <!-- Generator: Sketch 48.2 (47327) - http://www.bohemiancoding.com/sketch -->
    <title>New allergies</title>
    <desc>Created with Sketch.</desc>
    <defs>
        <circle id="path-1" cx="12" cy="12" r="12"></circle>
        <polygon id="path-2" points="0.100020859 0.101774887 16.681164 0.101774887 16.681164 16.6010622 0.100020859 16.6010622"></polygon>
        <polygon id="path-4" points="0 0.0110287968 16.5687422 0.0110287968 16.5687422 16.5143632 0 16.5143632"></polygon>
    </defs>
    <g id="allergies/GY/New" stroke="none" stroke-width="1" fill="none" fill-rule="evenodd">
        <g id="New-allergies">
            <g id="Oval-7">
                <use fill="#FFFFFF" fill-rule="evenodd" xlink:href="#path-1"></use>
                <circle stroke="#979797" stroke-width="0.70212766" cx="12" cy="12" r="11.6489362"></circle>
            </g>
            <g id="Page-1" transform="translate(2.042553, 2.042553)">
                <g id="Group-3" transform="translate(3.337505, 3.412971)">
                    <mask id="mask-3" fill="white">
                        <use xlink:href="#path-2"></use>
                    </mask>
                    <g id="Clip-2"></g>
                    <path d="M14.9705882,9.05452022 C14.471214,8.89027346 13.9719441,8.7260267 13.4857113,8.56603397 C13.2004589,8.98023047 12.9374218,9.36236617 12.6079474,9.84078803 C12.9723613,10.1407485 13.3576345,10.4578288 13.7429078,10.7749091 C13.7033792,10.8211845 13.6637463,10.8675637 13.6240092,10.9139429 C13.1866917,10.6296498 12.7493742,10.3453566 12.3258239,10.0700902 C11.9388819,10.3178611 11.5766583,10.5497571 11.1910722,10.7966979 C11.3914268,11.2350697 11.5871923,11.6635847 11.7830622,12.0922033 C11.7518773,12.1101532 11.7205882,12.1279994 11.6894034,12.1459493 C11.4887359,11.8718242 11.2773258,11.6047546 11.0904255,11.3217065 C10.9010221,11.0347157 10.701189,10.8673562 10.3262411,11.0271414 C10.1266166,11.1122219 9.88902795,11.1092129 9.66259908,11.1468766 C9.61378807,11.5792305 9.56758448,11.9880317 9.52138089,12.3969366 C9.48852733,12.3999455 9.45556946,12.4028507 9.42271589,12.4058597 C9.38089278,12.0950048 9.37192324,11.774293 9.28347935,11.477134 C9.2393617,11.329177 9.07008761,11.1581861 8.92156863,11.1124294 C8.52774301,10.9907229 8.11430955,10.9314778 7.62755528,10.8305226 C7.44847726,11.1406512 7.23174802,11.5164577 7.01512307,11.8921605 C6.98654568,11.8799173 6.95807259,11.8678815 6.9294952,11.855742 C7.04860242,11.4509873 7.16781393,11.0460251 7.28400083,10.6511274 C6.89007092,10.3487805 6.52158949,10.0658362 6.13569045,9.76961098 C5.77357113,9.96363589 5.4015436,10.1628486 4.99165624,10.3823977 C5.18554443,10.1543406 6.32488527,8.96995856 7.64810179,7.60753014 C7.64810179,7.60919024 7.6477889,7.61085035 7.6477889,7.61251046 C7.6477889,8.02058532 7.98039216,8.35146524 8.39059241,8.35146524 C8.80079266,8.35146524 9.13329161,8.02058532 9.13329161,7.61251046 C9.13329161,7.2044356 8.80079266,6.87355568 8.39059241,6.87355568 C8.3803713,6.87355568 8.37046308,6.874697 8.36034627,6.87511202 C8.85189821,6.37033598 9.34970797,5.86047585 9.81852315,5.38163897 C9.92344597,5.5220217 10.0912599,5.61353505 10.2807676,5.61353505 C10.5991865,5.61353505 10.8573217,5.35673737 10.8573217,5.04007211 C10.8573217,4.84625471 10.7604297,4.67536753 10.6126408,4.57161089 C11.2369629,3.93599772 11.7512516,3.41565817 12.0395286,3.12918609 C12.2207968,3.26956883 12.3434501,3.36460991 12.5073008,3.49171179 C12.9864414,3.22868871 13.4794535,2.95788388 13.9726742,2.68707906 C13.9917605,2.71011303 14.0110555,2.73293949 14.0301418,2.75597346 C13.6271381,3.10874604 13.2241343,3.46172612 12.8354193,3.8020479 C13.0925115,4.23118535 13.3305173,4.62836577 13.5971005,5.07317048 C14.0319149,4.98393977 14.4952023,4.88879493 14.9584898,4.79375385 C14.9689195,4.82415455 14.9793492,4.85455524 14.9897789,4.88485218 C14.5736337,5.0766982 14.1575928,5.26844047 13.7200668,5.47003962 C13.7698164,5.79801436 13.8180017,6.11582094 13.8708803,6.46433949 C14.396433,6.51538776 14.9102003,6.5652947 15.4239675,6.61520164 C15.430121,6.64871504 15.4362745,6.68233219 15.442428,6.71584558 C14.9218815,6.79355931 14.401335,6.87137679 13.8836045,6.94867548 C13.8012098,7.3616269 13.7245515,7.74573398 13.6422612,8.15816662 C14.0979349,8.42575499 14.5546516,8.69406966 15.0113684,8.96228057 C14.9978098,8.99299254 14.9841469,9.02380826 14.9705882,9.05452022 M14.189612,0.101774887 C9.47486441,4.79365009 4.78660826,9.4589636 0.100020859,14.1229283 C3.7149562,17.4091085 9.78233208,17.573044 13.7075511,13.7339446 C17.4758031,10.0481976 17.6915937,3.7989352 14.189612,0.101774887" id="Fill-1" fill="#9B9B9B" mask="url(#mask-3)"></path>
                </g>
                <g id="Group-6" transform="translate(0.000000, 0.092758)">
                    <mask id="mask-5" fill="white">
                        <use xlink:href="#path-4"></use>
                    </mask>
                    <g id="Clip-5"></g>
                    <path d="M8.2863058,10.0852906 C8.32207968,9.8219562 8.35222153,9.5991907 8.39070713,9.31572756 C8.05633083,9.14183143 7.69744472,8.955277 7.33845432,8.76872256 C7.34867543,8.73811435 7.35889654,8.70750614 7.36922194,8.67700169 C7.73655611,8.76830753 8.10378598,8.85961338 8.46173342,8.94874033 C8.6839904,8.5231306 8.89008135,8.12844034 9.11817897,7.69172865 C8.82708594,7.43420467 8.52107843,7.1635036 8.21507092,6.89280253 L8.27045265,6.80564696 C8.61984773,7.00444468 8.9693471,7.20324239 9.33636838,7.41200075 C9.70401544,7.10446607 10.0705152,6.79786521 10.4538068,6.47715344 C10.3345953,6.0639945 10.2128807,5.64201625 10.091166,5.220038 C10.1213079,5.20696466 10.1514497,5.19399508 10.1815916,5.18092175 C10.3873696,5.54676766 10.5929391,5.91261356 10.7916249,6.26580116 C11.2896433,6.14378336 11.7633605,6.05102492 12.2183041,5.90161536 C12.3525344,5.85751879 12.4981331,5.66515398 12.5257718,5.51958342 C12.5889758,5.1879772 12.5823008,4.84319389 12.6077493,4.44798485 C12.962985,5.01885388 12.9166771,5.58453507 12.5214956,5.97891406 C11.8606696,6.6382875 8.95401544,9.42404949 8.2863058,10.0852906 M5.59179182,9.15438599 C5.64706925,9.28771327 5.71694827,9.45579902 5.78672299,9.62388478 C5.4656967,9.42550208 5.24729871,8.96980293 4.76054443,9.35671143 C4.74010221,9.49730168 4.715801,9.66424611 4.69149979,9.8312943 L4.58636838,9.85069679 C4.55247184,9.686035 4.5185753,9.52137322 4.47904673,9.32911217 C4.22852524,9.26333046 3.96611389,9.19453981 3.69442011,9.12336275 C3.58240509,9.28698697 3.47331039,9.4467722 3.36400709,9.60655742 C3.33855861,9.59441789 3.31300584,9.58217461 3.28745307,9.57003508 C3.33970588,9.39562017 3.3919587,9.22110151 3.45036504,9.02614278 C3.27024406,8.88358116 3.0821965,8.73469038 2.87506258,8.57085865 C2.70704005,8.65925931 2.53432416,8.74994261 2.36150396,8.84062591 C2.33574259,8.80856511 2.30987693,8.77660807 2.28411556,8.74454726 C2.43273884,8.63674412 2.58146642,8.52894097 2.73238423,8.41937396 C2.60628911,8.21269073 2.49928035,8.03723826 2.38653525,7.85244768 C2.21903421,7.89675177 2.05935544,7.93898072 1.89967668,7.98131343 C1.88882979,7.95983581 1.87819149,7.93835818 1.8673446,7.91698431 C1.99855027,7.82339583 2.12975594,7.73001485 2.38570088,7.54750692 C2.18346892,7.35825481 2.00199207,7.1884052 1.83000626,7.02737489 C1.87986024,7.01150013 2.02545891,6.96512091 2.19692324,6.9103374 C2.21423655,6.75324985 2.23248853,6.58692796 2.25063621,6.42174739 C2.09658949,6.32131097 1.95818732,6.23104269 1.81968085,6.14067066 C1.82760743,6.12043811 1.835534,6.10010181 1.84356487,6.07986927 C1.9904151,6.10653472 2.13726533,6.13330394 2.31488319,6.16567601 C2.42178765,5.9678121 2.53307259,5.7615439 2.64738214,5.54988036 C2.49187526,5.40897884 2.35482895,5.28447087 2.21757405,5.16006666 L2.26315186,5.08743702 C2.43388611,5.17480011 2.60441176,5.26226695 2.79037338,5.35751555 C2.97664789,5.20488953 3.16114935,5.05361235 3.34742386,4.90088258 C3.29204214,4.696482 3.24020651,4.50494725 3.18837088,4.31351625 C3.21486233,4.3018955 3.24145807,4.29027476 3.26794952,4.27875777 C3.36442428,4.4292049 3.46089904,4.57965203 3.57635586,4.75956604 C3.84043596,4.69295428 4.11765749,4.6230223 4.40405715,4.55091144 C4.43680642,4.34350192 4.46819983,4.14511922 4.52431164,3.78964898 C4.68461619,4.2119385 4.5998227,4.57975578 5.11244264,4.66286485 C5.61776179,4.74493635 5.58814143,4.22885083 5.9659053,4.17074711 C5.85555903,4.39465394 5.76127451,4.58608494 5.65875052,4.79422076 C5.85274301,4.93698989 6.03223821,5.06896833 6.2370776,5.21962297 C6.45359825,5.09843522 6.67533375,4.97413477 6.89717355,4.84983431 C6.91792866,4.87027437 6.93868377,4.89071443 6.95943888,4.91105073 C6.78870463,5.07363738 6.61797038,5.23632779 6.4272111,5.41800567 C6.56123279,5.6373472 6.67762829,5.8280519 6.80966834,6.04386571 C7.01242178,6.00744713 7.22372758,5.9694722 7.56550897,5.90815203 C7.24990613,6.21049887 6.65092824,6.19867062 7.00574677,6.77701012 C7.19160409,6.79807272 7.42554234,6.82453066 7.6594806,6.85098861 C7.66584272,6.88771846 7.67210054,6.92434455 7.67846266,6.96097064 C7.44723613,7.00070944 7.2160096,7.04034447 6.97487484,7.08184713 C6.93346892,7.27939977 6.89508761,7.46242648 6.85149145,7.66993976 C7.05247184,7.80326704 7.26044013,7.94126337 7.46830413,8.0792597 C7.45756154,8.1019824 7.44671464,8.1247051 7.43597205,8.14753156 C7.21256779,8.08309869 6.98916354,8.01876958 6.75543388,7.95143152 C6.60889654,8.15313442 6.47070296,8.34332034 6.32666875,8.54149552 C6.49917605,8.72597483 6.66146224,8.89955968 6.82374844,9.07314454 C6.39456612,8.89271174 5.9869733,8.51410377 5.59179182,9.15438599 M5.44442011,12.5776288 L4.90875052,13.1366695 C4.88789111,13.1248413 4.86411139,13.1174746 4.83835002,13.1174746 C4.75991865,13.1174746 4.69629746,13.1807661 4.69629746,13.2587911 C4.69629746,13.2868054 4.70474552,13.3127446 4.71892991,13.334741 L3.21632249,14.9033338 C3.21632249,14.9033338 2.81509178,14.6941604 2.62474969,14.5948653 C2.9904151,14.3413879 2.87381101,14.1552485 2.45599708,14.0393523 C2.88768252,13.8173131 2.90113684,13.6740252 2.53202962,13.3384762 C3.02066124,13.3072455 3.13820401,13.0896678 2.90270129,12.6525411 C3.42794118,12.7607592 3.61828327,12.5708846 3.53880893,12.0180692 C3.97550063,12.429568 4.32176679,12.3414787 4.51117021,11.6986025 C4.7475073,12.3610887 4.98040259,12.3887917 5.49562995,11.8999942 C5.48029829,12.1031497 5.44442011,12.5776288 5.44442011,12.5776288 M3.24312683,2.63452632 C-0.767824364,6.30367234 -1.10199207,12.6476645 2.48384439,16.5143632 C7.19598456,11.8249781 11.8827806,7.16070217 16.5687422,2.49725629 C13.3330309,-0.57186509 7.32938048,-1.10361786 3.24312683,2.63452632" id="Fill-4" fill="#9B9B9B" mask="url(#mask-5)"></path>
                </g>
                <path d="M16.0763976,8.98080113 C15.8308824,8.98080113 15.6318836,9.1787688 15.6318836,9.42301193 C15.6318836,9.6671513 15.8308824,9.86511896 16.0763976,9.86511896 C16.3219128,9.86511896 16.5209116,9.6671513 16.5209116,9.42301193 C16.5209116,9.1787688 16.3219128,8.98080113 16.0763976,8.98080113" id="Fill-7" fill="#9B9B9B"></path>
                <path d="M13.6535252,9.5542952 C13.2086984,9.5542952 12.8481435,9.9129819 12.8481435,10.355504 C12.8481435,10.7979223 13.2086984,11.156609 13.6535252,11.156609 C14.0982478,11.156609 14.458907,10.7979223 14.458907,10.355504 C14.458907,9.9129819 14.0982478,9.5542952 13.6535252,9.5542952" id="Fill-9" fill="#9B9B9B"></path>
                <path d="M15.3414268,9.25630613 C15.3414268,9.02108983 15.1497288,8.83048889 14.9133917,8.83048889 C14.6769504,8.83048889 14.4852524,9.02108983 14.4852524,9.25630613 C14.4852524,9.49152243 14.6769504,9.68212338 14.9133917,9.68212338 C15.1497288,9.68212338 15.3414268,9.49152243 15.3414268,9.25630613" id="Fill-11" fill="#9B9B9B"></path>
                <path d="M15.4119107,10.3252797 C15.2099917,10.3252797 15.0464539,10.4879701 15.0464539,10.6887392 C15.0464539,10.8894045 15.2099917,11.0521987 15.4119107,11.0521987 C15.6137255,11.0521987 15.7772632,10.8894045 15.7772632,10.6887392 C15.7772632,10.4879701 15.6137255,10.3252797 15.4119107,10.3252797" id="Fill-13" fill="#9B9B9B"></path>
                <path d="M15.2173759,8.18742599 C15.489174,8.18742599 15.7095536,7.96829197 15.7095536,7.69790217 C15.7095536,7.42761613 15.489174,7.20837835 15.2173759,7.20837835 C14.9456821,7.20837835 14.7254068,7.42761613 14.7254068,7.69790217 C14.7254068,7.96829197 14.9456821,8.18742599 15.2173759,8.18742599" id="Fill-15" fill="#9B9B9B"></path>
                <path d="M3.97590738,8.00170161 C3.75959533,8.00170161 3.58406341,8.17622028 3.58406341,8.3915153 C3.58406341,8.60681033 3.75959533,8.78143275 3.97590738,8.78143275 C4.19232374,8.78143275 4.36785565,8.60681033 4.36785565,8.3915153 C4.36785565,8.17622028 4.19232374,8.00170161 3.97590738,8.00170161" id="Fill-17" fill="#9B9B9B"></path>
                <path d="M4.97314351,7.3369017 C5.14106174,7.3369017 5.27727368,7.20139553 5.27727368,7.03434734 C5.27727368,6.86729915 5.14106174,6.73179298 4.97314351,6.73179298 C4.80522528,6.73179298 4.66901335,6.86729915 4.66901335,7.03434734 C4.66901335,7.20139553 4.80522528,7.3369017 4.97314351,7.3369017" id="Fill-19" fill="#9B9B9B"></path>
                <path d="M4.99178139,7.61544677 C4.75711306,7.61544677 4.56687526,7.80459512 4.56687526,8.03804756 C4.56687526,8.2715 4.75711306,8.46075211 4.99178139,8.46075211 C5.22644973,8.46075211 5.41658323,8.2715 5.41658323,8.03804756 C5.41658323,7.80459512 5.22644973,7.61544677 4.99178139,7.61544677" id="Fill-23" fill="#9B9B9B"></path>
                <path d="M5.80424759,6.86699309 C5.94072341,6.86699309 6.05129365,6.75742345 6.05129365,6.62240222 C6.05129365,6.48728271 5.94072341,6.37771307 5.80424759,6.37771307 C5.66787102,6.37771307 5.55730079,6.48728271 5.55730079,6.62240222 C5.55730079,6.75742345 5.66787102,6.86699309 5.80424759,6.86699309" id="Fill-29" fill="#9B9B9B"></path>
                <path d="M4.44962453,6.88347481 C4.60596579,6.72794361 4.60596579,6.47571122 4.44962453,6.32018002 C4.29328327,6.16454506 4.03973717,6.16454506 3.88339591,6.32018002 C3.72695035,6.47571122 3.72695035,6.72794361 3.88339591,6.88347481 C4.03973717,7.03900601 4.29328327,7.03900601 4.44962453,6.88347481" id="Fill-31" fill="#9B9B9B"></path>
                <path d="M3.87507301,7.27114074 C3.73270755,7.41266479 3.73270755,7.64227824 3.87507301,7.78380229 C4.01733417,7.9254301 4.24814351,7.9254301 4.39040467,7.78380229 C4.53287443,7.64227824 4.53287443,7.41266479 4.39040467,7.27114074 C4.24814351,7.12961668 4.01733417,7.12961668 3.87507301,7.27114074" id="Fill-35" fill="#9B9B9B"></path>
                <path d="M4.04944018,13.3936021 C3.91521552,13.3936021 3.80629954,13.5012731 3.80629954,13.634181 C3.80629954,13.7669914 3.91521552,13.8746624 4.04944018,13.8746624 C4.18366485,13.8746624 4.29258083,13.7669914 4.29258083,13.634181 C4.29258083,13.5012731 4.18366485,13.3936021 4.04944018,13.3936021" id="Fill-45" fill="#9B9B9B"></path>
            </g>
        </g>
    </g>
</svg>