<?xml version="1.0" encoding="UTF-8"?>
<svg width="24px" height="24px" viewBox="0 0 24 24" version="1.1" xmlns="http://www.w3.org/2000/svg" xmlns:xlink="http://www.w3.org/1999/xlink">
    <!-- Generator: Sketch 48.2 (47327) - http://www.bohemiancoding.com/sketch -->
    <title>Shape</title>
    <desc>Created with Sketch.</desc>
    <defs></defs>
    <g id="Dietary/-Diabetic" stroke="none" stroke-width="1" fill="none" fill-rule="evenodd" fill-opacity="0.54">
        <g id="Dietary_Diabetic" fill="#000000" fill-rule="nonzero">
            <path d="M12,0 C5.372583,-4.05812251e-16 8.11624501e-16,5.372583 0,12 C-8.11624501e-16,18.627417 5.372583,24 12,24 C18.627417,24 24,18.627417 24,12 C24,8.81740212 22.7357179,5.76515517 20.4852814,3.51471863 C18.2348448,1.26428208 15.1825979,1.94877915e-16 12,0 Z M1.2,12 C1.2024664,11.4201953 1.25263566,10.8415766 1.35,10.27 L2.42,10.21 C2.41164032,10.3732264 2.41164032,10.5367736 2.42,10.7 C2.42,11.24 2.42,11.78 2.42,12.32 C2.42475006,12.4397482 2.4792582,12.5520813 2.57038319,12.6299172 C2.66150818,12.7077532 2.78098163,12.7440293 2.9,12.73 C3.02145826,12.7199685 3.13365385,12.6611024 3.21093028,12.5668628 C3.28820671,12.4726233 3.32395487,12.3510702 3.31,12.23 C3.31,11.75 3.25,11.23 3.31,10.79 C3.33578206,9.00101317 4.67491548,7.50408378 6.45,7.28 L11.45,6.45 C11.7468354,6.36731547 12.0580464,6.52292096 12.17,6.81 C12.3102402,7.10995814 12.2025779,7.46739672 11.92,7.64 C11.7131277,7.74803199 11.490317,7.82230224 11.26,7.86 L7.39,8.57 C7.18314773,8.61814677 7.02778537,8.78944372 7,9 C6.82,9.53 6.64,10.06 6.41,10.57 C6.28390125,10.8097626 6.12204828,11.0289385 5.93,11.22 C5.81567501,11.334325 5.77102602,11.5009573 5.81287187,11.6571281 C5.85471772,11.813299 5.97670103,11.9352823 6.13287187,11.9771281 C6.28904271,12.018974 6.45567501,11.974325 6.57,11.86 C7.10929552,11.3277148 7.49012063,10.6560778 7.67,9.92 C7.71803043,9.60056038 7.98715272,9.36087334 8.31,9.35 C9.36,9.19 10.41,8.98 11.46,8.78 L11.66,8.78 L18.54,8.78 C18.7050701,8.76108434 18.8698442,8.81780354 18.9882971,8.93431462 C19.10675,9.05082571 19.1661848,9.21463984 19.15,9.38 C19.1749142,9.55169938 19.1202711,9.7253986 19.0015443,9.85191079 C18.8828175,9.97842298 18.7129339,10.0439734 18.54,10.03 L10.09,10.03 C9.47888632,9.98846137 8.91172356,10.3490148 8.69,10.92 C8.42381099,11.490264 8.52634535,12.1646245 8.95,12.63 C9.00988068,12.6935425 9.0733158,12.753639 9.14,12.81 C8.73162921,13.4893996 8.88988628,14.3662293 9.51,14.86 C9.3022172,15.2458419 9.24860776,15.6961611 9.36,16.12 L8,16.13 L5.64,16.23 C4.91705599,16.3244214 4.22889369,15.8922219 4,15.2 C3.92268014,14.9625176 3.66748244,14.8326801 3.43,14.91 C3.19251756,14.9873199 3.06268014,15.2425176 3.14,15.48 C3.14,15.53 3.14,15.58 3.21,15.66 L1.9,15.78 C1.44143997,14.5722946 1.2043159,13.2918246 1.2,12 Z M12.1,14.21 L10.33,14.13 C10.18287,14.1369763 10.0401493,14.0787237 9.93992205,13.9707867 C9.83969478,13.8628496 9.79215926,13.7162109 9.81,13.57 C9.79932489,13.4218251 9.8564492,13.276808 9.96531226,13.1757209 C10.0741753,13.0746338 10.2230207,13.0283932 10.37,13.05 L13.77,13.12 C13.9531169,13.1098917 14.1305219,13.1855114 14.2500355,13.3246174 C14.3695491,13.4637234 14.4175796,13.6504958 14.38,13.83 C14.353599,14.1025654 14.112858,14.3031829 13.84,14.28 L12.1,14.21 Z M13.66,15.8 C13.6335335,16.0849468 13.3856423,16.297425 13.1,16.28 C12.32,16.28 11.54,16.2 10.76,16.14 C10.5759433,16.1497988 10.3996012,16.0650415 10.2922774,15.9151932 C10.1849537,15.7653449 10.1614737,15.5711053 10.23,15.4 C10.3255878,15.1542819 10.5796272,15.0085215 10.84,15.05 L11.91,15.12 L13.07,15.19 L13.25,15.19 C13.5293465,15.2501783 13.7134508,15.5175678 13.67,15.8 L13.66,15.8 Z M13.21,12.12 L10.08,12.12 C9.82881073,12.1558153 9.58168058,12.0324001 9.45940346,11.8100781 C9.33712633,11.5877561 9.36523885,11.3129574 9.53,11.12 C9.64321478,10.9214313 9.86249707,10.8078744 10.09,10.83 L14.4,10.83 C14.5684729,10.8132816 14.736316,10.8673315 14.8633745,10.9792188 C14.9904329,11.0911061 15.0652767,11.2507656 15.07,11.42 C15.0754949,11.5922738 15.0101668,11.7592762 14.8892373,11.8820952 C14.7683078,12.0049142 14.6023383,12.0728235 14.43,12.07 C14,12.13 13.62,12.13 13.22,12.13 L13.21,12.12 Z M12,22.8 C7.83683141,22.7976315 4.0464195,20.40041 2.26,16.64 L3.68,16.5 C3.72829502,16.4815339 3.78170498,16.4815339 3.83,16.5 C4.26493991,16.8841429 4.82998715,17.0879891 5.41,17.07 C5.93,17.07 6.41,17.07 6.96,17.07 C8.23485444,16.9738001 9.51514556,16.9738001 10.79,17.07 C11.53,17.18 12.28,17.17 13.02,17.22 C13.4169288,17.2536663 13.809746,17.1190583 14.1026036,16.8490208 C14.3954612,16.5789833 14.5614252,16.1983514 14.56,15.8 C14.5435073,15.5678724 14.5100851,15.3372591 14.46,15.11 C14.8406491,14.9121741 15.1222889,14.5654389 15.2378861,14.1523213 C15.3534832,13.7392037 15.2926987,13.2966526 15.07,12.93 C15.8125683,12.569473 16.1557486,11.7006622 15.86,10.93 L18.58,10.93 C19.185628,10.9588578 19.7351728,10.5774573 19.92,10 C20.154341,9.51583231 20.115338,8.9438654 19.8174403,8.49599156 C19.5195425,8.04811772 19.0071177,7.7910415 18.47,7.82 C16.72,7.82 14.97,7.82 13.21,7.82 L13,7.82 L13.08,7.59 C13.2475233,7.07916824 13.1365319,6.51795126 12.7871719,6.10934302 C12.4378119,5.70073479 11.9006578,5.50388695 11.37,5.59 C9.71,5.88 8.04,6.13 6.37,6.42 C4.72537851,6.587432 3.31251719,7.66058896 2.71,9.2 C2.68730098,9.24985703 2.64313297,9.2866637 2.59,9.3 L1.59,9.3 C2.99466872,3.85996151 8.33570188,0.405570619 13.8732563,1.35562531 C19.4108108,2.30568001 23.2949912,7.34280161 22.8060568,12.9399488 C22.3171225,18.5370959 17.6184085,22.8244656 12,22.8 Z" id="Shape"></path>
        </g>
    </g>
</svg>