<?xml version="1.0" encoding="UTF-8"?>
<svg width="24px" height="24px" viewBox="0 0 24 24" version="1.1" xmlns="http://www.w3.org/2000/svg" xmlns:xlink="http://www.w3.org/1999/xlink">
    <!-- Generator: Sketch 48.2 (47327) - http://www.bohemiancoding.com/sketch -->
    <title>Dietary/ Gluten-free</title>
    <desc>Created with Sketch.</desc>
    <defs></defs>
    <g id="Symbols" stroke="none" stroke-width="1" fill="none" fill-rule="evenodd" fill-opacity="0.54">
        <g id="Dietary/-Gluten-free" fill="#000000" fill-rule="nonzero">
            <g id="Dietary_Gluten-free">
                <path d="M12,0 C5.372583,-4.05812251e-16 8.11624501e-16,5.372583 0,12 C-8.11624501e-16,18.627417 5.372583,24 12,24 C18.627417,24 24,18.627417 24,12 C24,8.81740212 22.7357179,5.76515517 20.4852814,3.51471863 C18.2348448,1.26428208 15.1825979,1.94877915e-16 12,0 Z M1.2,12 C1.20883562,7.79315649 3.66187427,3.97502718 7.48441186,2.21837788 C11.3069494,0.461728587 15.8019099,1.086901 19,3.82 L17.1,5.72 L17.1,5.32 C17.0521304,5.08183973 16.8429235,4.91049876 16.6,4.91049876 C16.3570765,4.91049876 16.1478696,5.08183973 16.1,5.32 L16.1,6.74 L15.1,7.74 L15.1,4.74 C15.1406969,4.53752558 15.0552658,4.33049448 14.8836242,4.2156412 C14.7119825,4.10078792 14.4880175,4.10078792 14.3163758,4.2156412 C14.1447342,4.33049448 14.0593031,4.53752558 14.1,4.74 L14.1,7.89 C14.1009639,8.13619453 14.2776671,8.34655546 14.52,8.39 L11.36,11.5 C11.2167347,10.9922201 10.9240578,10.5392678 10.52,10.2 C9.8423314,9.66432576 8.99259866,9.39411786 8.13,9.44 C7.97471809,9.22821947 7.89068147,8.97260807 7.89,8.71 L7.89,5.31 C7.84213038,5.07183973 7.63292348,4.90049876 7.39,4.90049876 C7.14707652,4.90049876 6.93786962,5.07183973 6.89,5.31 L6.89,8.7 C6.89446936,9.22214881 7.07803057,9.72694212 7.41,10.13 C7.38459437,10.9588434 7.75607269,11.7500922 8.41,12.26 C8.83630157,12.6283921 9.34886813,12.8829554 9.9,13 L9.59,13.31 C9.11866804,13.1093175 8.61226128,13.0039577 8.1,13 L7.73,12.63 C7.52841607,12.4284161 7.20158394,12.4284161 7.00000001,12.63 C6.79841607,12.8315839 6.79841607,13.1584161 7,13.36 L7.37,13.73 C7.36116976,14.2079932 7.48584129,14.6789745 7.73,15.09 L3.82,19 C2.13750923,17.0551542 1.20795117,14.5716021 1.2,12 Z M14.14,11 C14.5546342,10.6735612 15.0625879,10.4878954 15.59,10.47 C15.5289837,10.8642985 15.3219544,11.2212456 15.01,11.47 C14.5953658,11.7964388 14.0874121,11.9821046 13.56,12 C13.621949,11.6060316 13.8287953,11.2494001 14.14,11 Z M15.34,9.47 L16.12,8.69 C16.1193185,8.95260807 16.0352819,9.20821947 15.88,9.42 C15.6993247,9.42164842 15.5189463,9.43500978 15.34,9.46 L15.34,9.47 Z M10.44,15.6 C10.092836,15.5797864 9.75304495,15.4914407 9.44,15.34 L10,14.78 C10.2249099,14.9995146 10.3782733,15.2818427 10.44,15.59 L10.44,15.6 Z M8.44,14.07 C8.54774366,14.083754 8.65459221,14.1037881 8.76,14.13 L8.54,14.35 C8.49003544,14.257764 8.44981826,14.1605724 8.42,14.06 L8.44,14.07 Z M10.44,12 C9.91604113,11.9800034 9.41190227,11.7944523 9,11.47 C8.68804558,11.2212456 8.48101629,10.8642985 8.42,10.47 C8.94395887,10.4899966 9.44809773,10.6755477 9.86,11 C10.1719544,11.2487544 10.3789837,11.6057015 10.44,12 Z M12,22.8 C9.32905964,22.7960162 6.75525279,21.7978639 4.78,20 L7.38,17.4 C7.39499405,18.1832779 7.76237411,18.918038 8.38,19.4 C9.02593591,19.9165577 9.83313985,20.189166 10.66,20.17 L11.04,20.17 C11.2844367,20.1524067 11.4818007,19.9634412 11.51,19.72 C11.6264654,18.823635 11.2708537,17.9308226 10.57,17.36 C9.90067004,16.8304586 9.06256152,16.5605592 8.21,16.6 L8.74,16.07 C9.31806378,16.4222319 9.98310169,16.6058101 10.66,16.6 L11.04,16.6 C11.2844367,16.5824067 11.4818007,16.3934412 11.51,16.15 C11.6027673,15.3543682 11.3221735,14.560583 10.75,14 L12.53,12.22 C12.5243136,12.3199192 12.5243136,12.4200808 12.53,12.52 C12.5442766,12.7751584 12.7451987,12.9803554 13,13 L13.38,13 C14.2068602,13.019166 15.0140641,12.7465577 15.66,12.23 C16.3139273,11.7200922 16.6854056,10.9288434 16.66,10.1 C16.9919694,9.69694212 17.1755306,9.19214881 17.18,8.67 L17.18,7.67 L20,4.78 C22.8426813,7.94495016 23.5603768,12.4847824 21.832605,16.3722689 C20.1048332,20.2597554 16.2541309,22.7691886 12,22.78 L12,22.8 Z M8.42,17.66 C8.94741208,17.6778954 9.45536585,17.8635612 9.87,18.19 C10.1819544,18.4387544 10.3889837,18.7957015 10.45,19.19 C9.92372317,19.1749747 9.4158835,18.9928529 9,18.67 C8.68588155,18.4188088 8.47863089,18.0579068 8.42,17.66 Z" id="Shape"></path>
                <path d="M12,10.46 C12.1172933,10.4579938 12.2303091,10.4156128 12.32,10.34 C13.0779864,9.7468763 13.5265621,8.84237134 13.54,7.88 C13.5338904,7.01492689 13.1722733,6.19043988 12.54,5.6 L12.54,4.29 C12.4921304,4.05183973 12.2829235,3.88049876 12.04,3.88049876 C11.7970765,3.88049876 11.5878696,4.05183973 11.54,4.29 L11.54,5.6 C10.9077267,6.19043988 10.5461096,7.01492689 10.54,7.88 C10.5534379,8.84237134 11.0020136,9.7468763 11.76,10.34 C11.8278545,10.4007055 11.9107228,10.4421397 12,10.46 Z M12,6.54 C12.6930743,7.30273952 12.6930743,8.46726048 12,9.23 C11.3069257,8.46726048 11.3069257,7.30273952 12,6.54 Z" id="Shape"></path>
                <path d="M16.26,16.26 L15.89,16.63 C15.0172656,16.5766667 14.1555469,16.847289 13.47,17.39 C12.7658723,17.9628012 12.4099055,18.8602921 12.53,19.76 C12.5581993,20.0034412 12.7555633,20.1924067 13,20.21 L13.38,20.21 C14.2068602,20.229166 15.0140641,19.9565577 15.66,19.44 C16.3040568,18.9354297 16.67424,18.158045 16.66,17.34 L17,17 C17.2015839,16.7984161 17.2015839,16.4715839 17,16.27 C16.7984161,16.0684161 16.4715839,16.0684161 16.27,16.27 L16.26,16.26 Z M15,18.67 C14.5853658,18.9964388 14.0774121,19.1821046 13.55,19.2 C13.611949,18.8060316 13.8187953,18.4494001 14.13,18.2 C14.5446342,17.8735612 15.0525879,17.6878954 15.58,17.67 C15.5189837,18.0642985 15.3119544,18.4212456 15,18.67 Z" id="Shape"></path>
                <path d="M16.26,12.66 L15.9,13 C15.0272656,12.9466667 14.1655469,13.217289 13.48,13.76 C12.7758723,14.3328012 12.4199055,15.2302921 12.54,16.13 C12.5681993,16.3734412 12.7655633,16.5624067 13.01,16.58 L13.39,16.58 C14.2168602,16.599166 15.0240641,16.3265577 15.67,15.81 C16.3140568,15.3054297 16.68424,14.528045 16.67,13.71 L17.04,13.34 C17.1704019,13.2095981 17.2213297,13.0195331 17.1735993,12.8414007 C17.1258689,12.6632684 16.9867316,12.5241311 16.8085993,12.4764007 C16.6304669,12.4286703 16.4404019,12.4795981 16.31,12.61 L16.26,12.66 Z M15,15.07 C14.5853658,15.3964388 14.0774121,15.5821046 13.55,15.6 C13.611949,15.2060316 13.8187953,14.8494001 14.13,14.6 C14.5446342,14.2735612 15.0525879,14.0878954 15.58,14.07 C15.5189837,14.4642985 15.3119544,14.8212456 15,15.07 Z" id="Shape"></path>
                <path d="M9.43,8.4 C9.71166522,8.4 9.94,8.17166522 9.94,7.89 L9.94,4.8 C9.98069686,4.59752558 9.89526579,4.39049448 9.72362416,4.2756412 C9.55198252,4.16078792 9.32801748,4.16078792 9.15637584,4.2756412 C8.98473421,4.39049448 8.89930314,4.59752558 8.94,4.8 L8.94,7.89 C8.93978921,8.16403606 9.15617465,8.38925357 9.43,8.4 Z" id="Shape"></path>
            </g>
        </g>
    </g>
</svg>