<?xml version="1.0" encoding="UTF-8"?>
<svg width="24px" height="24px" viewBox="0 0 24 24" version="1.1" xmlns="http://www.w3.org/2000/svg" xmlns:xlink="http://www.w3.org/1999/xlink">
    <!-- Generator: Sketch 48.2 (47327) - http://www.bohemiancoding.com/sketch -->
    <title>Dietary/ Lactose-free</title>
    <desc>Created with Sketch.</desc>
    <defs></defs>
    <g id="Symbols" stroke="none" stroke-width="1" fill="none" fill-rule="evenodd" fill-opacity="0.54">
        <g id="Dietary/-Lactose-free" fill="#000000" fill-rule="nonzero">
            <g id="Dietary_Lactose-free">
                <path d="M12,0 C5.372583,-4.05812251e-16 8.11624501e-16,5.372583 0,12 C-8.11624501e-16,18.627417 5.372583,24 12,24 C18.627417,24 24,18.627417 24,12 C24,8.81740212 22.7357179,5.76515517 20.4852814,3.51471863 C18.2348448,1.26428208 15.1825979,1.94877915e-16 12,0 Z M1.2,12 C1.20883562,7.79315649 3.66187427,3.97502718 7.48441186,2.21837788 C11.3069494,0.461728587 15.8019099,1.086901 19,3.82 L3.82,19 C2.13750923,17.0551542 1.20795117,14.5716021 1.2,12 Z M12,22.8 C9.32905964,22.7960162 6.75525279,21.7978639 4.78,20 L20,4.78 C22.8426813,7.94495016 23.5603768,12.4847824 21.832605,16.3722689 C20.1048332,20.2597554 16.2541309,22.7691886 12,22.78 L12,22.8 Z" id="Shape"></path>
                <path d="M17.09,9.89 L15.28,6.72 L15.28,5 C15.28,4.87534825 15.2304823,4.75580191 15.1423402,4.66765981 C15.0541981,4.57951771 14.9346518,4.53 14.81,4.53 L9.66,4.53 C9.53534825,4.53 9.41580191,4.57951771 9.32765981,4.66765981 C9.23951771,4.75580191 9.19,4.87534825 9.19,5 L9.19,6.69 L6.93,9.85 L6.93,9.91 C6.92065342,9.96292384 6.92065342,10.0170762 6.93,10.07 L6.93,19 C6.93,19.2595738 7.14042617,19.47 7.4,19.47 L16.78,19.47 C17.0395738,19.47 17.25,19.2595738 17.25,19 L17.25,10.13 C17.2231402,10.0352073 17.1671703,9.95125239 17.09,9.89 Z M14.34,5.44 L14.34,6.38 L10.13,6.38 L10.13,5.44 L14.34,5.44 Z M7.78,18.56 L7.78,10.56 L10.59,10.56 C10.8495738,10.56 11.06,10.3495738 11.06,10.09 C11.06,9.83042617 10.8495738,9.62 10.59,9.62 L8.22,9.62 L9.9,7.31 L14,7.31 L12.53,9.89 C12.4906235,9.96025934 12.4699627,10.0394588 12.47,10.12 L12.47,18.56 L7.78,18.56 Z M16.22,18.56 L13.41,18.56 L13.41,10.25 L14.82,7.79 L16.23,10.25 L16.22,18.56 Z" id="Shape"></path>
            </g>
        </g>
    </g>
</svg>