<?xml version="1.0" encoding="UTF-8"?>
<svg width="24px" height="24px" viewBox="0 0 24 24" version="1.1" xmlns="http://www.w3.org/2000/svg" xmlns:xlink="http://www.w3.org/1999/xlink">
    <!-- Generator: Sketch 48.2 (47327) - http://www.bohemiancoding.com/sketch -->
    <title>Dietary/ Low Sodium</title>
    <desc>Created with Sketch.</desc>
    <defs></defs>
    <g id="Symbols" stroke="none" stroke-width="1" fill="none" fill-rule="evenodd" fill-opacity="0.54">
        <g id="Dietary/-Low-Sodium" fill="#000000" fill-rule="nonzero">
            <g id="Dietary_Low-Sodium">
                <path d="M12,0 C5.372583,-4.05812251e-16 8.11624501e-16,5.372583 0,12 C-8.11624501e-16,18.627417 5.372583,24 12,24 C18.627417,24 24,18.627417 24,12 C24,8.81740212 22.7357179,5.76515517 20.4852814,3.51471863 C18.2348448,1.26428208 15.1825979,1.94877915e-16 12,0 Z M1.2,12 C1.20883562,7.79315649 3.66187427,3.97502718 7.48441186,2.21837788 C11.3069494,0.461728587 15.8019099,1.086901 19,3.82 L3.82,19 C2.13750923,17.0551542 1.20795117,14.5716021 1.2,12 Z M12,22.8 C9.32905964,22.7960162 6.75525279,21.7978639 4.78,20 L20,4.78 C22.8426813,7.94495016 23.5603768,12.4847824 21.832605,16.3722689 C20.1048332,20.2597554 16.2541309,22.7691886 12,22.78 L12,22.8 Z" id="Shape"></path>
                <path d="M15.72,8 L15.19,8 L15.19,6.93 C15.19,6.63728908 14.9527109,6.4 14.66,6.4 L14.49,6.4 C14.2726412,5.18975863 13.2196052,4.30899889 11.99,4.30899889 C10.7603948,4.30899889 9.70735881,5.18975863 9.49,6.4 L9.34,6.4 C9.19943526,6.4 9.06462769,6.45583913 8.96523341,6.55523341 C8.86583913,6.65462769 8.81,6.78943526 8.81,6.93 L8.81,8 L8.28,8 C7.98728908,8 7.75,8.23728908 7.75,8.53 L7.75,19.16 C7.75,19.4527109 7.98728908,19.69 8.28,19.69 L15.72,19.69 C15.8605647,19.69 15.9953723,19.6341609 16.0947666,19.5347666 C16.1941609,19.4353723 16.25,19.3005647 16.25,19.16 L16.25,8.52 C16.24455,8.23120168 16.0088497,7.99994858 15.72,8 Z M9.29,18.62 L8.81,18.62 L8.81,9.05 L9.29,9.05 L9.29,18.62 Z M12,5.11 C12.7833703,5.11255478 13.4696122,5.63540571 13.68,6.39 L10.31,6.39 C10.521386,5.6318328 11.2129182,5.10806875 12,5.11 Z M10.49,18.62 L10,18.62 L10,9.05 L10.54,9.05 L10.49,18.62 Z M11.69,18.62 L11.15,18.62 L11.15,9.05 L11.69,9.05 L11.69,18.62 Z M12.89,18.62 L12.35,18.62 L12.35,9.05 L12.89,9.05 L12.89,18.62 Z M14.09,18.62 L13.55,18.62 L13.55,9.05 L14.09,9.05 L14.09,18.62 Z M14.13,8 L9.87,8 L9.87,7.46 L14.12,7.46 L14.13,8 Z M15.19,18.63 L14.77,18.63 L14.77,9.05 L15.19,9.05 L15.19,18.63 Z" id="Shape"></path>
                <circle id="Oval" cx="12" cy="5.52" r="1"></circle>
            </g>
        </g>
    </g>
</svg>