<?xml version="1.0" encoding="UTF-8"?>
<svg width="24px" height="24px" viewBox="0 0 24 24" version="1.1" xmlns="http://www.w3.org/2000/svg" xmlns:xlink="http://www.w3.org/1999/xlink">
    <!-- Generator: Sketch 48.2 (47327) - http://www.bohemiancoding.com/sketch -->
    <title>Dietary/ Low-Carb</title>
    <desc>Created with Sketch.</desc>
    <defs></defs>
    <g id="Symbols" stroke="none" stroke-width="1" fill="none" fill-rule="evenodd" fill-opacity="0.54">
        <g id="Dietary/-Low-Carb" fill="#000000" fill-rule="nonzero">
            <g id="Dietary_Low-Carb">
                <path d="M12,0 C5.372583,-4.05812251e-16 8.11624501e-16,5.372583 0,12 C-8.11624501e-16,18.627417 5.372583,24 12,24 C18.627417,24 24,18.627417 24,12 C24,8.81740212 22.7357179,5.76515517 20.4852814,3.51471863 C18.2348448,1.26428208 15.1825979,1.94877915e-16 12,0 Z M1.2,12 C1.20883562,7.79315649 3.66187427,3.97502718 7.48441186,2.21837788 C11.3069494,0.461728587 15.8019099,1.086901 19,3.82 L3.82,19 C2.13750923,17.0551542 1.20795117,14.5716021 1.2,12 Z M12,22.8 C9.32905964,22.7960162 6.75525279,21.7978639 4.78,20 L20,4.78 C22.8426813,7.94495016 23.5603768,12.4847824 21.832605,16.3722689 C20.1048332,20.2597554 16.2541309,22.7691886 12,22.78 L12,22.8 Z" id="Shape"></path>
                <path d="M17.21,6 C16.4770637,5.90231928 15.7392529,5.8455646 15,5.83 C14,5.83 12.2,5.71 10.51,5.75 C9.27984275,5.76981295 8.05153434,5.85325782 6.83,6 C5.27711306,6.21976058 4.12451666,7.55164976 4.13,9.12 C4.12926126,9.76836147 4.5707701,10.3336578 5.2,10.49 C5.421264,10.5446881 5.57754134,10.742091 5.58,10.97 L5.58,16.73 C5.58,17.5805185 6.26948149,18.27 7.12,18.27 L13.62,18.27 C14.4705185,18.27 15.16,17.5805185 15.16,16.73 L15.16,11 C15.1588321,10.7770436 15.2877663,10.5738746 15.49,10.48 C15.6115935,10.4276572 15.739248,10.3907046 15.87,10.37 L17.66,10.37 C17.5610948,10.5652608 17.5097,10.7811189 17.51,11 L17.51,16.76 C17.51,17.1079394 17.2279394,17.39 16.88,17.39 L15.8,17.39 C15.5745498,17.4235147 15.4076387,17.6170723 15.4076387,17.845 C15.4076387,18.0729277 15.5745498,18.2664853 15.8,18.3 L16.88,18.3 C17.7305185,18.3 18.42,17.6105185 18.42,16.76 L18.42,11 C18.4224587,10.772091 18.578736,10.5746881 18.8,10.52 C19.4292299,10.3636578 19.8707387,9.79836147 19.87,9.15 C19.9022055,7.58028086 18.7629406,6.23115131 17.21,6 Z M15.31,9.6 C14.6697492,9.75890592 14.2252535,10.340489 14.24,11 L14.24,16.76 C14.24,17.1079394 13.9579394,17.39 13.61,17.39 L7.12,17.39 C6.77206061,17.39 6.49,17.1079394 6.49,16.76 L6.49,11 C6.50474646,10.340489 6.0602508,9.75890592 5.42,9.6 C5.18287732,9.56165626 5.00652795,9.36011413 5,9.12 C5.01480535,7.99027398 5.87572879,7.05186743 7,6.94 C8.12988666,6.78365695 9.26935247,6.70680148 10.41,6.71 C11.5506518,6.70666976 12.6901268,6.78352584 13.82,6.94 C14.9086322,7.09348241 15.7209573,8.02063876 15.73,9.12 C15.7234721,9.36011413 15.5471227,9.56165626 15.31,9.6 Z M18.84,9.43 L16.55,9.43 C16.578407,9.32890558 16.5951822,9.22489912 16.6,9.12 C16.5949706,8.22560539 16.205117,7.37667198 15.53,6.79 L15.85,6.79 C16.26,6.79 16.68,6.87 17.07,6.93 C18.172505,7.07081813 18.9988982,8.00853886 19,9.12 C18.9874336,9.23974299 18.9303251,9.35039054 18.84,9.43 Z" id="Shape"></path>
            </g>
        </g>
    </g>
</svg>