<?xml version="1.0" encoding="UTF-8"?>
<svg width="24px" height="24px" viewBox="0 0 24 24" version="1.1" xmlns="http://www.w3.org/2000/svg" xmlns:xlink="http://www.w3.org/1999/xlink">
    <!-- Generator: Sketch 48.2 (47327) - http://www.bohemiancoding.com/sketch -->
    <title>Dietary/ Nut Free</title>
    <desc>Created with Sketch.</desc>
    <defs></defs>
    <g id="Symbols" stroke="none" stroke-width="1" fill="none" fill-rule="evenodd" fill-opacity="0.54">
        <g id="Dietary/-Nut-Free" fill="#000000" fill-rule="nonzero">
            <g id="Dietary_Nut-Free">
                <path d="M12,0 C5.372583,-4.05812251e-16 8.11624501e-16,5.372583 0,12 C-8.11624501e-16,18.627417 5.372583,24 12,24 C18.627417,24 24,18.627417 24,12 C24,8.81740212 22.7357179,5.76515517 20.4852814,3.51471863 C18.2348448,1.26428208 15.1825979,1.94877915e-16 12,0 Z M1.2,12 C1.20883562,7.79315649 3.66187427,3.97502718 7.48441186,2.21837788 C11.3069494,0.461728587 15.8019099,1.086901 19,3.82 L3.82,19 C2.13750923,17.0551542 1.20795117,14.5716021 1.2,12 Z M12,22.8 C9.32905964,22.7960162 6.75525279,21.7978639 4.78,20 L20,4.78 C22.8426813,7.94495016 23.5603768,12.4847824 21.832605,16.3722689 C20.1048332,20.2597554 16.2541309,22.7691886 12,22.78 L12,22.8 Z" id="Shape"></path>
                <circle id="Oval" cx="11.92" cy="7.61" r="1"></circle>
                <circle id="Oval" cx="13.26" cy="9.41" r="1"></circle>
                <circle id="Oval" cx="11.02" cy="9.85" r="1"></circle>
                <circle id="Oval" cx="9.68" cy="15.23" r="1"></circle>
                <path d="M12.14,17 C11.5364919,17.0045053 10.9632215,16.7362441 10.58,16.27 C10.4155234,16.1089912 10.1560625,16.0980487 9.97861329,16.2446371 C9.8011641,16.3912256 9.76293298,16.6480876 9.89,16.84 C10.4427222,17.5133426 11.2688596,17.9025451 12.14,17.9 C12.3885281,17.9 12.59,17.6985281 12.59,17.45 C12.59,17.2014719 12.3885281,17 12.14,17 Z" id="Shape"></path>
                <path d="M15.24,12.23 C14.8492031,11.8400461 14.7524607,11.2434679 15,10.75 C15.5765504,9.75217512 15.6375037,8.53781498 15.1637684,7.48727236 C14.6900331,6.43672974 13.7395418,5.67847389 12.61,5.45 C11.2384423,5.16699836 9.82780239,5.70972991 8.99962709,6.83905987 C8.17145179,7.96838982 8.07782502,9.476931 8.76,10.7 C9.04633583,11.1534498 9.00587368,11.7401509 8.66,12.15 C7.88366238,12.9581899 7.44083883,14.0295372 7.42,15.15 C7.40222348,17.5857355 9.32573748,19.5934586 11.76,19.68 L11.9,19.68 C13.6663788,19.6775529 15.2664355,18.637414 15.9856337,17.0240777 C16.7048318,15.4107413 16.408903,13.5254041 15.23,12.21 L15.24,12.23 Z M14.41,17.8 C13.713344,18.476206 12.7701399,18.8375869 11.8,18.8 C9.86022846,18.70931 8.33321601,17.1118877 8.33,15.17 C8.34379435,14.2655864 8.70133611,13.4003353 9.33,12.75 C9.94811904,12.0588259 10.0453363,11.0461458 9.57,10.25 C9.10455528,9.41524819 9.11698124,8.39621308 9.6026422,7.5730589 C10.0883032,6.74990472 10.9742619,6.24625394 11.93,6.25 C12.1111911,6.24921771 12.292033,6.26596233 12.47,6.3 C13.3212524,6.47386013 14.0361202,7.04815927 14.3893519,7.8419384 C14.7425836,8.63571753 14.6906816,9.55122924 14.25,10.3 C13.8002331,11.1257597 13.9334691,12.1472356 14.58,12.83 C15.8904992,14.2663022 15.8150286,16.4860257 14.41,17.83 L14.41,17.8 Z" id="Shape"></path>
            </g>
        </g>
    </g>
</svg>