<?xml version="1.0" encoding="UTF-8"?>
<svg width="24px" height="24px" viewBox="0 0 24 24" version="1.1" xmlns="http://www.w3.org/2000/svg" xmlns:xlink="http://www.w3.org/1999/xlink">
    <!-- Generator: Sketch 48.2 (47327) - http://www.bohemiancoding.com/sketch -->
    <title>Dietary/ Paleo</title>
    <desc>Created with Sketch.</desc>
    <defs></defs>
    <g id="Symbols" stroke="none" stroke-width="1" fill="none" fill-rule="evenodd" fill-opacity="0.54">
        <g id="Dietary/-Paleo" fill="#000000" fill-rule="nonzero">
            <g id="Dietary_Paleo">
                <path d="M12,0 C5.372583,-4.05812251e-16 8.11624501e-16,5.372583 0,12 C-8.11624501e-16,18.627417 5.372583,24 12,24 C18.627417,24 24,18.627417 24,12 C24,8.81740212 22.7357179,5.76515517 20.4852814,3.51471863 C18.2348448,1.26428208 15.1825979,1.94877915e-16 12,0 Z M12,22.8 C6.0353247,22.8 1.2,17.9646753 1.2,12 C1.2,6.0353247 6.0353247,1.2 12,1.2 C17.9646753,1.2 22.8,6.0353247 22.8,12 C22.8,14.8643381 21.6621461,17.6113603 19.6367532,19.6367532 C17.6113603,21.6621461 14.8643381,22.8 12,22.8 Z" id="Shape"></path>
                <path d="M16.39,7.28 L17.09,7.98 L14.65,10.42 C14.5126175,10.0990435 14.4119779,9.76357792 14.35,9.42 C14.2609731,8.84318939 13.7636375,8.41811619 13.18,8.42 L12.31,8.42 C12.0890861,8.42 11.91,8.5990861 11.91,8.82 C11.91,9.0409139 12.0890861,9.22 12.31,9.22 L13.18,9.22 C13.3676614,9.21601735 13.5315389,9.346279 13.57,9.53 C13.7500408,10.4614702 14.1513086,11.3360283 14.74,12.08 C15.5011358,12.9790123 15.9129413,14.1221277 15.9,15.3 C15.9457199,17.5727374 14.1708797,19.4673793 11.9,19.57 C10.6279236,19.5418457 9.44910172,18.8964781 8.74,17.84 L10.39,16.19 L11.24,17.04 L11.59,16.69 L9.29,14.39 L9,14.79 L9.74,15.53 L8.24,17 C8.03423065,16.4812429 7.92902717,15.9280762 7.93,15.37 C7.91705867,14.1921277 8.32886422,13.0490123 9.09,12.15 C9.67835627,11.405823 10.079585,10.5313501 10.26,9.6 C10.2984611,9.416279 10.4623386,9.28601735 10.65,9.29 L10.73,9.29 C10.9509139,9.29 11.13,9.1109139 11.13,8.89 L11.13,6.31 C11.1401686,5.83808654 10.8633703,5.40707199 10.43,5.22 C10.0832803,5.07569367 9.88361314,4.70963717 9.95,4.34 C10.0131281,4.01625807 10.2662581,3.76312812 10.59,3.7 C10.8217022,3.65880549 11.0597892,3.72171998 11.2408945,3.87199889 C11.4219999,4.0222778 11.5277501,4.24467503 11.53,4.48 C11.53,4.7009139 11.7090861,4.88 11.93,4.88 C12.1509139,4.88 12.33,4.7009139 12.33,4.48 C12.3322499,4.24467503 12.4380001,4.0222778 12.6191055,3.87199889 C12.8002108,3.72171998 13.0382978,3.65880549 13.27,3.7 C13.6139978,3.76809312 13.8735513,4.05227942 13.9102614,4.40102511 C13.9469715,4.74977081 13.7522799,5.08177239 13.43,5.22 C12.9966297,5.40707199 12.7198314,5.83808654 12.73,6.31 L12.73,7.31 C12.73,7.5309139 12.9090861,7.71 13.13,7.71 C13.3509139,7.71 13.53,7.5309139 13.53,7.31 L13.53,6.31 C13.5325962,6.18255972 13.6006073,6.06542944 13.71,6 C14.2858692,5.75859578 14.6671296,5.20246977 14.6846705,4.5782954 C14.7022115,3.95412104 14.3527854,3.37746082 13.7913825,3.10409625 C13.2299797,2.83073168 12.5605408,2.91127473 12.08,3.31 L11.91,3.48 L11.74,3.31 C11.4591887,3.07524465 11.105984,2.94455889 10.74,2.94 L10.46,2.94 C9.79129686,3.08622525 9.29123009,3.64401084 9.21862819,4.32465367 C9.14602628,5.00529651 9.51718618,5.65601294 10.14,5.94 C10.2738397,6.00401327 10.3565011,6.14178228 10.35,6.29 L10.35,8.49 C9.90969417,8.60795237 9.57797855,8.97088828 9.5,9.42 C9.34292904,10.2182903 9.0003803,10.968472 8.5,11.61 C7.63040099,12.6496237 7.15896648,13.9646779 7.17,15.32 C7.17599076,16.0906216 7.35723134,16.8497803 7.7,17.54 L7.26,18 C6.78808402,18.0036238 6.32796697,17.852593 5.95,17.57 L4.72,18.67 C5.29667814,19.1770929 6.11277549,19.3092229 6.82,19.01 C6.52077706,19.7172245 6.65290711,20.5333219 7.16,21.11 L8.38,20 C8.08902816,19.6374374 7.9334467,19.1848368 7.94,18.72 L8.18,18.48 C9.03474209,19.7016662 10.4194411,20.4441321 11.91,20.48 C14.6124801,20.3612791 16.7304777,18.1147837 16.69,15.41 C16.7010335,14.0546779 16.229599,12.7396237 15.36,11.7 C15.29,11.6 15.22,11.5 15.15,11.4 L17.8,8.69 L18.5,9.39 L19.27,6.5 L16.39,7.28 Z" id="Shape"></path>
            </g>
        </g>
    </g>
</svg>