<?xml version="1.0" encoding="UTF-8"?>
<svg width="24px" height="24px" viewBox="0 0 24 24" version="1.1" xmlns="http://www.w3.org/2000/svg" xmlns:xlink="http://www.w3.org/1999/xlink">
    <!-- Generator: Sketch 48.2 (47327) - http://www.bohemiancoding.com/sketch -->
    <title>Dietary/ Pescetarian</title>
    <desc>Created with Sketch.</desc>
    <defs></defs>
    <g id="Symbols" stroke="none" stroke-width="1" fill="none" fill-rule="evenodd" fill-opacity="0.54">
        <g id="Dietary/-Pescetarian" fill="#000000" fill-rule="nonzero">
            <g id="Dietary_Pescetarian">
                <path d="M12,0 C5.372583,-4.05812251e-16 8.11624501e-16,5.372583 0,12 C-8.11624501e-16,18.627417 5.372583,24 12,24 C18.627417,24 24,18.627417 24,12 C24,8.81740212 22.7357179,5.76515517 20.4852814,3.51471863 C18.2348448,1.26428208 15.1825979,1.94877915e-16 12,0 Z M12,22.8 C6.0353247,22.8 1.2,17.9646753 1.2,12 C1.2,6.0353247 6.0353247,1.2 12,1.2 C17.9646753,1.2 22.8,6.0353247 22.8,12 C22.8,14.8643381 21.6621461,17.6113603 19.6367532,19.6367532 C17.6113603,21.6621461 14.8643381,22.8 12,22.8 Z" id="Shape"></path>
                <circle id="Oval" cx="7.31" cy="12.47" r="1"></circle>
                <path d="M18.69,12.15 C19.2748117,11.4576273 19.5655324,10.5639304 19.5,9.66 C19.4987616,9.53582436 19.4484299,9.41718532 19.36,9.33 C19.2731591,9.22301216 19.1363061,9.16979154 19,9.19 C17.9224953,9.19435618 16.9162985,9.72924889 16.31,10.62 C15.4128433,9.74557895 14.3338886,9.07976834 13.15,8.67 C13.2000421,8.10550666 13.3004416,7.54661615 13.45,7 C13.4985649,6.85581185 13.474328,6.69703459 13.3849575,6.57390184 C13.2955869,6.45076908 13.15214,6.37851531 13,6.38 C11.7123543,6.45310211 10.5068529,7.036061 9.65,8 C9.37709098,8.33191155 9.03606412,8.60132276 8.65,8.79 C7.00828818,9.51013359 5.61648395,10.7001262 4.65,12.21 C4.5539933,12.3628407 4.5539933,12.5571593 4.65,12.71 C5.10364648,13.4534757 5.66280942,14.1271659 6.31,14.71 C6.43146574,14.8420392 6.61750587,14.8934095 6.78951432,14.842406 C6.96152277,14.7914024 7.08949002,14.6469232 7.11934708,14.4700141 C7.14920414,14.293105 7.07574199,14.1146305 6.93,14.01 C6.42476254,13.5610293 5.97793057,13.0503642 5.6,12.49 C6.45229373,11.2526561 7.62853678,10.2736067 9,9.66 C9.51930896,9.42720886 9.98296576,9.08628475 10.36,8.66 C10.9004704,8.04334212 11.6096295,7.59837953 12.4,7.38 C12.294967,7.91382441 12.238072,8.45600067 12.23,9 C12.2323089,9.19977183 12.3606582,9.37625212 12.55,9.44 C13.7071019,9.80071418 14.7671183,10.4196269 15.65,11.25 C15.8403836,11.4602735 16.1171199,11.570968 16.4,11.55 C16.6905353,11.5321828 16.9564256,11.380773 17.12,11.14 C17.4514038,10.6362148 17.9630811,10.2783985 18.55,10.14 C18.5268653,10.6427332 18.3328364,11.1225138 18,11.5 C17.4741204,12.0397532 17.4741204,12.9002468 18,13.44 C18.3136921,13.810894 18.4964465,14.2748089 18.52,14.76 C17.9330811,14.6216015 17.4214038,14.2637852 17.09,13.76 C16.92915,13.52739 16.6711959,13.3806096 16.3890585,13.3611518 C16.1069211,13.3416941 15.8312594,13.4516734 15.64,13.66 C14.8331568,14.3951825 13.8928533,14.9688694 12.87,15.35 C12.7470748,15.4015556 12.6518231,15.5028834 12.6079577,15.628758 C12.5640923,15.7546326 12.5757396,15.8932131 12.64,16.01 C12.7431589,16.1952835 12.8205401,16.393783 12.87,16.6 C12.4018173,16.4853732 11.9797153,16.2307166 11.66,15.87 C11.5669601,15.7637984 11.4311053,15.7050504 11.29,15.71 L11.24,15.71 C10.3648946,15.7435191 9.49434032,15.5687228 8.7,15.2 C9.6467155,14.4080738 10.189618,13.2342305 10.18,12 C10.18,11.7404262 9.96957382,11.53 9.71,11.53 C9.45042618,11.53 9.24000002,11.7404262 9.24,12 C9.24814632,13.1870458 8.60252455,14.282297 7.56,14.85 C7.4165486,14.9344716 7.3284848,15.0885255 7.3284848,15.255 C7.3284848,15.4214745 7.4165486,15.5755284 7.56,15.66 C8.61920233,16.2935333 9.82598041,16.6383271 11.06,16.66 L11.12,16.66 C11.7299597,17.2562137 12.5470791,17.5930963 13.4,17.6 C13.6595738,17.6 13.87,17.3895738 13.87,17.13 C13.8663837,16.7546268 13.7987465,16.3826223 13.67,16.03 C14.6589786,15.6341214 15.559671,15.0461222 16.32,14.3 C16.9221772,15.1928272 17.9231922,15.7344211 19,15.75 C19.1244057,15.7498771 19.2434569,15.6993705 19.33,15.61 C19.4184299,15.5228147 19.4687616,15.4041756 19.47,15.28 C19.5355324,14.3760696 19.2448117,13.4823727 18.66,12.79 C18.4953642,12.6036274 18.508652,12.3201546 18.69,12.15 Z" id="Shape"></path>
            </g>
        </g>
    </g>
</svg>