<?xml version="1.0" encoding="UTF-8"?>
<svg width="24px" height="24px" viewBox="0 0 24 24" version="1.1" xmlns="http://www.w3.org/2000/svg" xmlns:xlink="http://www.w3.org/1999/xlink">
    <!-- Generator: Sketch 48.2 (47327) - http://www.bohemiancoding.com/sketch -->
    <title>Dietary/ Vegan</title>
    <desc>Created with Sketch.</desc>
    <defs></defs>
    <g id="Symbols" stroke="none" stroke-width="1" fill="none" fill-rule="evenodd" fill-opacity="0.54">
        <g id="Dietary/-Vegan" fill="#000000" fill-rule="nonzero">
            <g id="Dietary_Vegan">
                <path d="M12,0 C5.372583,-4.05812251e-16 8.11624501e-16,5.372583 0,12 C-8.11624501e-16,18.627417 5.372583,24 12,24 C18.627417,24 24,18.627417 24,12 C24,8.81740212 22.7357179,5.76515517 20.4852814,3.51471863 C18.2348448,1.26428208 15.1825979,1.94877915e-16 12,0 Z M12,22.8 C6.0353247,22.8 1.2,17.9646753 1.2,12 C1.2,6.0353247 6.0353247,1.2 12,1.2 C17.9646753,1.2 22.8,6.0353247 22.8,12 C22.8,14.8643381 21.6621461,17.6113603 19.6367532,19.6367532 C17.6113603,21.6621461 14.8643381,22.8 12,22.8 Z" id="Shape"></path>
                <path d="M18.29,7.54 L18.14,7.54 L19.33,6.35 C19.4570541,6.24292787 19.5129576,6.07341629 19.4745252,5.91176813 C19.4360929,5.75011996 19.30988,5.62390709 19.1482319,5.58547476 C18.9865837,5.54704243 18.8170721,5.60294595 18.71,5.73 L17.52,6.89 C17.52,6.84 17.52,6.79 17.52,6.74 C17.3997685,6.24610743 17.0611383,5.83386202 16.6,5.62 C16.4549049,5.5404202 16.2774286,5.54898191 16.1406676,5.64215887 C16.0039065,5.73533582 15.9309918,5.89736844 15.9519546,6.0615211 C15.9729173,6.22567377 16.0842119,6.36418237 16.24,6.42 C16.45904,6.52898571 16.6170842,6.73113535 16.67,6.97 C16.7654334,7.3106944 16.7069701,7.67609015 16.51,7.97 L16.11,8.37 C15.9829459,8.47707213 15.9270424,8.64658371 15.9654748,8.80823187 C16.0039071,8.96988004 16.13012,9.09609291 16.2917681,9.13452524 C16.4534163,9.17295757 16.6229279,9.11705405 16.73,8.99 L17.13,8.59 C17.4239099,8.39302995 17.7893056,8.33456663 18.13,8.43 C18.3688646,8.48291576 18.5710143,8.64096002 18.68,8.86 C18.7358176,9.01578808 18.8743262,9.12708269 19.0384789,9.14804543 C19.2026316,9.16900817 19.3646642,9.09609349 19.4578411,8.95933242 C19.5510181,8.82257135 19.5595798,8.64509511 19.48,8.5 C19.2617149,8.00654579 18.8184622,7.64896382 18.29,7.54 Z" id="Shape"></path>
                <path d="M13.51,8.2 C12.6242015,8.2044215 11.7773714,8.56477475 11.16,9.2 C9.08484243,11.6315152 7.26839026,14.2724088 5.74,17.08 C5.30797691,17.7357701 5.35673544,18.5971707 5.86,19.2 C6.1284646,19.4585634 6.48727503,19.6020875 6.86,19.6 C7.2600755,19.5945529 7.6522599,19.4879063 8,19.29 C10.8073261,17.7611778 13.4481763,15.9447555 15.88,13.87 C17.1742374,12.5706286 17.1742374,10.4693714 15.88,9.17 C15.2527754,8.5408296 14.3983622,8.19113304 13.51,8.2 Z M15.24,13.25 C14.6778273,13.773463 14.083323,14.2610901 13.46,14.71 L12.76,14.01 C12.5852706,13.8627504 12.3269053,13.8737558 12.1653305,14.0353305 C12.0037558,14.1969053 11.9927504,14.4552706 12.14,14.63 L12.74,15.23 C11.08864,16.432853 9.36175465,17.5284398 7.57,18.51 C7.11,18.75 6.69,18.76 6.48,18.51 C6.27,18.26 6.28,17.88 6.48,17.41 C6.68,16.94 7,16.5 7.36,16 L7.77,16.41 C7.94472944,16.5572496 8.2030947,16.5462442 8.36466947,16.3846695 C8.52624424,16.2230947 8.53724956,15.9647294 8.39,15.79 L7.83,15.23 C8.83,13.65 10.03,11.94 10.93,10.81 L11.71,11.59 C11.8847294,11.7372496 12.1430947,11.7262442 12.3046695,11.5646695 C12.4662442,11.4030947 12.4772496,11.1447294 12.33,10.97 L11.49,10.13 L11.79,9.81 C12.2479623,9.3495541 12.870585,9.09066847 13.52,9.09066847 C14.169415,9.09066847 14.7920377,9.3495541 15.25,9.81 C16.1875861,10.7666077 16.1831319,12.2988595 15.24,13.25 Z" id="Shape"></path>
                <path d="M10.14,14 C10.0329279,13.8729459 9.86341629,13.8170424 9.70176813,13.8554748 C9.54011996,13.8939071 9.41390709,14.02012 9.37547476,14.1817681 C9.33704243,14.3434163 9.39294595,14.5129279 9.52,14.62 L10.4,15.5 C10.5747294,15.6472496 10.8330947,15.6362442 10.9946695,15.4746695 C11.1562442,15.3130947 11.1672496,15.0547294 11.02,14.88 L10.14,14 Z" id="Shape"></path>
                <path d="M14.52,11.39 C14.3452706,11.2427504 14.0869053,11.2537558 13.9253305,11.4153305 C13.7637558,11.5769053 13.7527504,11.8352706 13.9,12.01 L14.34,12.45 C14.5147294,12.5972496 14.7730947,12.5862442 14.9346695,12.4246695 C15.0962442,12.2630947 15.1072496,12.0047294 14.96,11.83 L14.52,11.39 Z" id="Shape"></path>
            </g>
        </g>
    </g>
</svg>