<?xml version="1.0" encoding="UTF-8"?>
<svg width="24px" height="24px" viewBox="0 0 24 24" version="1.1" xmlns="http://www.w3.org/2000/svg" xmlns:xlink="http://www.w3.org/1999/xlink">
    <!-- Generator: Sketch 48.2 (47327) - http://www.bohemiancoding.com/sketch -->
    <title>Dietary/ Vegetarian</title>
    <desc>Created with Sketch.</desc>
    <defs></defs>
    <g id="Symbols" stroke="none" stroke-width="1" fill="none" fill-rule="evenodd" fill-opacity="0.54">
        <g id="Dietary/-Vegetarian" fill="#000000" fill-rule="nonzero">
            <g id="Dietary_Vegetarian">
                <path d="M12,0 C5.372583,-4.05812251e-16 8.11624501e-16,5.372583 0,12 C-8.11624501e-16,18.627417 5.372583,24 12,24 C18.627417,24 24,18.627417 24,12 C24,8.81740212 22.7357179,5.76515517 20.4852814,3.51471863 C18.2348448,1.26428208 15.1825979,1.94877915e-16 12,0 Z M12,22.8 C6.0353247,22.8 1.2,17.9646753 1.2,12 C1.2,6.0353247 6.0353247,1.2 12,1.2 C17.9646753,1.2 22.8,6.0353247 22.8,12 C22.8,14.8643381 21.6621461,17.6113603 19.6367532,19.6367532 C17.6113603,21.6621461 14.8643381,22.8 12,22.8 Z" id="Shape"></path>
                <path d="M18,6.75 L17.9,6.81 L17.9,5.58 C17.9,5.40326888 17.7567311,5.26 17.58,5.26 C17.4032689,5.26 17.26,5.40326888 17.26,5.58 L17.26,6.82 L17.16,6.76 C16.841719,6.56422348 16.4516989,6.52374969 16.1,6.65 C15.9867341,6.68470143 15.9019058,6.77913734 15.8795092,6.8954634 C15.8571127,7.01178946 15.9008127,7.13097124 15.9930968,7.20524772 C16.0853809,7.2795242 16.2111488,7.29674152 16.32,7.25 C16.4902449,7.19109009 16.6780753,7.21318779 16.83,7.31 C17.0473053,7.4382382 17.1999647,7.65268828 17.25,7.9 L17.25,8.32 C17.25,8.49673112 17.3932689,8.64 17.57,8.64 C17.7467311,8.64 17.89,8.49673112 17.89,8.32 L17.89,7.89 C17.9400353,7.64268828 18.0926947,7.4282382 18.31,7.3 C18.4619247,7.20318779 18.6497551,7.18109009 18.82,7.24 C18.9288512,7.28674152 19.0546191,7.2695242 19.1469032,7.19524772 C19.2391873,7.12097124 19.2828873,7.00178946 19.2604908,6.8854634 C19.2380942,6.76913734 19.1532659,6.67470143 19.04,6.64 C18.6942312,6.52012671 18.3130408,6.56044493 18,6.75 Z" id="Shape"></path>
                <path d="M15.89,9.58 C15.4335596,10.0357954 15.1779763,10.6549549 15.18,11.3 C15.3651516,13.6448644 15.7941346,15.9640538 16.46,18.22 C16.5912517,18.768186 17.0584584,19.1709503 17.62,19.22 C17.9043748,19.2161113 18.1750085,19.0970325 18.37,18.89 C18.5612696,18.6893698 18.7018383,18.445946 18.78,18.18 C19.4448322,15.9272137 19.8738019,13.6114479 20.06,11.27 C20.0545201,9.9247016 18.9652984,8.8354799 17.62,8.83 C16.9656497,8.83581887 16.3415478,9.1063833 15.89,9.58 Z M19.41,11.31 C19.3922256,11.8761354 19.3387863,12.4405876 19.25,13 L18.53,13 C18.3532689,13 18.21,13.1432689 18.21,13.32 C18.21,13.4967311 18.3532689,13.64 18.53,13.64 L19.15,13.64 C18.9109885,15.1232318 18.5769678,16.5895829 18.15,18.03 C18.03,18.39 17.82,18.62 17.6,18.62 C17.38,18.62 17.17,18.39 17.05,18.03 C16.93,17.67 16.82,17.27 16.71,16.82 L17.14,16.82 C17.3167311,16.82 17.46,16.6767311 17.46,16.5 C17.46,16.3232689 17.3167311,16.18 17.14,16.18 L16.56,16.18 C16.26,14.84 15.99,13.33 15.87,12.27 L16.68,12.27 C16.8567311,12.27 17,12.1267311 17,11.95 C17,11.7732689 16.8567311,11.63 16.68,11.63 L15.81,11.63 C15.81,11.51 15.81,11.4 15.81,11.31 C15.8073209,10.831794 15.9961028,10.3723988 16.3342508,10.0342508 C16.6723988,9.69610279 17.131794,9.50732091 17.61,9.51 C18.6041125,9.51 19.41,10.3158875 19.41,11.31 Z" id="Shape"></path>
                <path d="M17.16,14.36 C16.9832689,14.36 16.84,14.5032689 16.84,14.68 C16.84,14.8567311 16.9832689,15 17.16,15 L18.07,15 C18.2467311,15 18.39,14.8567311 18.39,14.68 C18.39,14.5032689 18.2467311,14.36 18.07,14.36 L17.16,14.36 Z" id="Shape"></path>
                <path d="M18.07,10.72 C17.8932689,10.72 17.75,10.8632689 17.75,11.04 C17.75,11.2167311 17.8932689,11.36 18.07,11.36 L18.52,11.36 C18.6967311,11.36 18.84,11.2167311 18.84,11.04 C18.84,10.8632689 18.6967311,10.72 18.52,10.72 L18.07,10.72 Z" id="Shape"></path>
                <path d="M14.29,10.3 L12.6,7.3 L12.6,5.71 C12.6,5.59330474 12.553643,5.48138902 12.471127,5.39887302 C12.388611,5.31635701 12.2766953,5.27 12.16,5.27 L7.36,5.27 C7.24330474,5.27 7.13138902,5.31635701 7.04887302,5.39887302 C6.96635701,5.48138902 6.92,5.59330474 6.92,5.71 L6.92,7.32 L4.82,10.26 L4.82,10.32 C4.81121171,10.3696138 4.81121171,10.4203862 4.82,10.47 L4.82,18.77 C4.82,19.0130053 5.01699471,19.21 5.26,19.21 L13.99,19.21 C14.2330053,19.21 14.43,19.0130053 14.43,18.77 L14.43,10.47 C14.3984984,10.402382 14.3503227,10.343883 14.29,10.3 Z M11.73,6.15 L11.73,7 L7.8,7 L7.8,6.15 L11.73,6.15 Z M5.62,18.37 L5.62,11 L8.24,11 C8.45499208,10.9673095 8.61385622,10.7824632 8.61385622,10.565 C8.61385622,10.3475368 8.45499208,10.1626905 8.24,10.13 L6,10.13 L7.59,7.89 L11.42,7.89 L10,10.3 C9.9610144,10.3667865 9.94031938,10.4426682 9.94,10.52 L9.94,18.38 L5.62,18.37 Z M13.48,18.37 L10.86,18.37 L10.86,10.63 L12.17,8.34 L13.48,10.63 L13.48,18.37 Z" id="Shape"></path>
            </g>
        </g>
    </g>
</svg>