<?xml version="1.0" encoding="UTF-8"?>
<svg width="30px" height="25px" viewBox="0 0 30 25" version="1.1" xmlns="http://www.w3.org/2000/svg" xmlns:xlink="http://www.w3.org/1999/xlink">
    <!-- Generator: Sketch 48.2 (47327) - http://www.bohemiancoding.com/sketch -->
    <title>BP_ic</title>
    <desc>Created with Sketch.</desc>
    <defs></defs>
    <g id="Profile" stroke="none" stroke-width="1" fill="none" fill-rule="evenodd" transform="translate(-112.000000, -58.000000)">
        <g id="Logo" transform="translate(112.000000, 58.000000)" fill="#000000">
            <path d="M29.4909971,7.32213714 L29.4806351,7.29355078 C28.9601303,5.86587927 27.6420488,3.32244183 24.6624367,2.329702 C22.8276047,1.7181635 21.0214561,1.7970379 19.4401187,2.55809353 C18.7323463,2.89873514 18.1631849,3.33261917 17.7092075,3.78012287 C17.3734173,3.07399495 16.9192896,2.43132576 16.3615416,1.88968164 C15.7874245,1.33202318 15.1206497,0.882274472 14.3798389,0.553007533 C12.7759754,-0.159705724 10.968325,-0.183951744 9.15286553,0.482813808 C5.92246201,1.66907279 4.76161318,4.7047643 4.48258897,5.60800339 C4.45465652,5.69855179 4.42807563,5.7899982 4.40299649,5.88189361 C4.13223188,6.87313677 4.03747177,7.9176613 4.12141932,8.98628218 C4.14664863,9.30791612 4.19365325,9.6455644 4.26108159,9.99009735 C4.31949947,10.2876349 4.35509083,10.3932997 4.40660068,10.5318911 C4.42627354,10.5847235 4.44654709,10.6393519 4.48228862,10.7613303 C4.59657141,11.1542056 4.9563895,11.4093875 5.34714353,11.4092379 C5.43019002,11.4092379 5.51488844,11.3977135 5.5986858,11.3734675 C6.07669122,11.2351754 6.35151054,10.7369346 6.21274931,10.2606949 C6.15898684,10.0758564 6.12279479,9.97842334 6.0962139,9.90718195 C6.07353755,9.84641723 6.06422673,9.82127321 6.0296866,9.64571406 C5.97547361,9.36868083 5.93792998,9.09957994 5.91795678,8.84619407 C5.85022808,7.98381402 5.92561568,7.14523099 6.14186695,6.35349367 C6.16184015,6.28000728 6.18316493,6.20696988 6.20509041,6.13557882 C6.4223929,5.43274357 7.32178794,3.06920562 9.77608968,2.1679122 C11.1414762,1.66652846 12.4798313,1.67520913 13.6459362,2.19335556 C14.1919706,2.43611509 14.6824405,2.76657937 15.1038302,3.17591804 C16.0425709,4.08753846 16.5809465,5.40206188 16.5809465,6.78273802 L16.5809465,8.09067611 C16.5809465,8.58667185 16.9844653,8.98867685 17.4819934,8.98867685 C17.9796717,8.98867685 18.3830404,8.58667185 18.3830404,8.09067611 L18.3830404,6.78273802 C18.3830404,6.4691861 18.3605142,6.15832817 18.3195166,5.85151125 C18.6910483,5.29639713 19.2970024,4.6213999 20.223579,4.17554253 C21.3736153,3.62237407 22.7109191,3.57298403 24.0910227,4.03291008 C26.3526506,4.78648237 27.3774413,6.78348636 27.786817,7.90703496 L27.7974794,7.93592065 C28.0012662,8.49462678 28.3806069,9.5346613 28.0951252,11.3948698 C28.0421136,11.7420968 27.9004991,12.6643436 27.4845157,13.1151399 C27.2832819,13.3330548 27.0308386,13.4925996 26.9871378,13.5193899 C26.8785617,13.578209 26.7534663,13.643314 26.5550858,13.6950987 C26.2664504,13.7703811 25.5857094,13.8975979 24.2676279,13.9026866 L24.2475045,13.9028363 L24.2311355,13.9025369 C24.2258794,13.9025369 24.2209236,13.9023873 24.2158177,13.9023873 L3.0293504,13.9002919 C2.20008685,13.9002919 1.42548682,14.2325522 0.847915715,14.8360087 C0.271996534,15.4376692 -0.0358611768,16.2582922 0.00333436587,17.0875959 C0.0794728339,18.6993576 1.43509798,19.9619466 3.09032125,19.9619466 L7.83298191,19.9573069 L8.58415473,19.9650896 C8.70804868,19.9662869 8.80250844,19.9727226 8.8816504,19.9854443 C9.05690403,20.0137313 9.2213451,20.0649174 9.37046837,20.1373561 C9.52589897,20.2130875 9.63973124,20.2989962 9.86213966,20.4708137 C10.0746366,20.6348485 10.2770718,20.814748 10.4599843,21.0018315 C10.7870644,21.3394797 11.1435786,21.7069117 11.500243,22.074194 C11.8561566,22.4410273 12.2122203,22.807711 12.5385495,23.1449102 L12.5499627,23.1562849 C13.7121631,24.3145562 15.2386869,24.893617 16.7653608,24.893617 C18.2918845,24.893617 19.8185584,24.3145562 20.9807588,23.1562849 L23.6322396,20.5137681 C23.9840985,20.1629491 23.9840985,19.594365 23.6320895,19.2436957 C23.280531,18.8931761 22.7098679,18.8931761 22.3578589,19.2436957 L19.7065282,21.8863622 C18.0864458,23.5008179 15.4516343,23.5024642 13.8297498,21.8918999 C13.5043216,21.5557483 13.1499098,21.1905613 12.7953479,20.825524 C12.4394343,20.4586907 12.0833706,20.092007 11.7535874,19.7512158 C11.5091033,19.5015716 11.2440453,19.265996 10.9659222,19.0510745 C10.7214381,18.862195 10.4904697,18.6839419 10.1617378,18.5237984 C9.85282885,18.3733833 9.5186906,18.2687662 9.16878403,18.2124915 C8.9987865,18.1851025 8.81887746,18.1713331 8.60247602,18.1692378 L7.85145338,18.1614551 L7.83208087,18.1614551 L3.0894202,18.1659451 C2.41063149,18.1659451 1.83366109,17.6442067 1.80332584,17.0030342 C1.78695682,16.6568549 1.9107006,16.3274383 2.15158049,16.0758484 C2.38600287,15.8311432 2.69761495,15.6962934 3.0293504,15.6962934 L4.34277652,15.6983887 L24.2081588,15.6983887 L24.2266303,15.6986881 C24.233238,15.6988377 24.2396955,15.6986881 24.2466035,15.6988377 L24.2746861,15.6986881 C25.4152614,15.6943477 26.3618112,15.6023027 27.0117664,15.4324309 C27.4321048,15.3227251 27.7133817,15.1702146 27.8646074,15.0883469 C27.8724164,15.0840066 27.8800753,15.0798159 27.8877342,15.0753259 C27.9396946,15.0450932 28.4076383,14.767611 28.8105565,14.3313323 C29.5093184,13.5744673 29.747345,12.5094384 29.8764951,11.6663654 C30.2318079,9.35221749 29.7315767,7.98112002 29.4909971,7.32213714" id="BP_ic"></path>
        </g>
    </g>
</svg>